<svg width="24" height="24" viewBox="0 0 24 24" fill="none" xmlns="http://www.w3.org/2000/svg">
<path fill-rule="evenodd" clip-rule="evenodd" d="M10.5005 16.5C12.0918 16.5 13.6179 15.8679 14.7431 14.7427C15.8684 13.6174 16.5005 12.0913 16.5005 10.5C16.5005 8.90872 15.8684 7.38259 14.7431 6.25737C13.6179 5.13216 12.0918 4.50001 10.5005 4.50001C8.9092 4.50001 7.38308 5.13216 6.25786 6.25737C5.13264 7.38259 4.5005 8.90872 4.5005 10.5C4.5005 12.0913 5.13264 13.6174 6.25786 14.7427C7.38308 15.8679 8.9092 16.5 10.5005 16.5ZM16.8205 15.406L20.4005 18.986C20.4959 19.0783 20.572 19.1887 20.6244 19.3108C20.6767 19.4328 20.7042 19.564 20.7052 19.6968C20.7063 19.8296 20.6809 19.9613 20.6305 20.0841C20.5802 20.207 20.5058 20.3186 20.4119 20.4124C20.3179 20.5062 20.2062 20.5804 20.0833 20.6306C19.9604 20.6808 19.8287 20.706 19.6959 20.7048C19.5631 20.7035 19.4319 20.6758 19.3099 20.6233C19.188 20.5708 19.0777 20.4946 18.9855 20.399L15.4055 16.819C13.798 18.0669 11.7753 18.6552 9.74926 18.4642C7.72322 18.2732 5.84611 17.3173 4.50005 15.7911C3.154 14.2648 2.44019 12.283 2.50393 10.2489C2.56767 8.21492 3.40417 6.28164 4.84315 4.84266C6.28213 3.40368 8.21541 2.56718 10.2494 2.50344C12.2834 2.4397 14.2653 3.15351 15.7916 4.49957C17.3178 5.84562 18.2737 7.72273 18.4647 9.74877C18.6557 11.7748 18.0674 13.7975 16.8195 15.405L16.8205 15.406ZM9.00049 9C9.00049 8.44772 9.4482 8 10.0005 8H13.0005C13.5528 8 14.0005 8.44772 14.0005 9C14.0005 9.55228 13.5528 10 13.0005 10H10.0005C9.4482 10 9.00049 9.55228 9.00049 9ZM7.00049 11C6.4482 11 6.00049 11.4477 6.00049 12C6.00049 12.5523 6.4482 13 7.00049 13H13.0005C13.5528 13 14.0005 12.5523 14.0005 12C14.0005 11.4477 13.5528 11 13.0005 11H7.00049Z" fill="url(#paint0_linear_196_2022)"/>
<defs>
<linearGradient id="paint0_linear_196_2022" x1="2.5" y1="2.49951" x2="22.0882" y2="4.13428" gradientUnits="userSpaceOnUse">
<stop stop-color="#48B760"/>
<stop offset="1" stop-color="#6BB748"/>
</linearGradient>
</defs>
</svg>
