<svg width="24" height="24" viewBox="0 0 24 24" fill="none" xmlns="http://www.w3.org/2000/svg">
<path fill-rule="evenodd" clip-rule="evenodd" d="M13.6808 0.339383C14.2133 0.56354 14.6955 0.891859 15.0993 1.30505V1.30655L16.0323 2.26055L17.3673 2.24555C17.9452 2.23871 18.5186 2.34749 19.0538 2.56548C19.589 2.78348 20.0753 3.10629 20.4839 3.51494C20.8926 3.92359 21.2154 4.40982 21.4334 4.94504C21.6514 5.48026 21.7601 6.05367 21.7533 6.63155L21.7368 7.96655L22.6923 8.89955C23.1055 9.3033 23.4338 9.78557 23.658 10.318C23.8821 10.8505 23.9976 11.4223 23.9976 12C23.9976 12.5778 23.8821 13.1496 23.658 13.6821C23.4338 14.2145 23.1055 14.6968 22.6923 15.1005L21.7383 16.0336L21.7533 17.3685C21.7601 17.9464 21.6514 18.5198 21.4334 19.0551C21.2154 19.5903 20.8926 20.0765 20.4839 20.4852C20.0753 20.8938 19.589 21.2166 19.0538 21.4346C18.5186 21.6526 17.9452 21.7614 17.3673 21.7545L16.0323 21.738L15.0993 22.6935C14.6955 23.1067 14.2133 23.4351 13.6808 23.6592C13.1484 23.8834 12.5765 23.9988 11.9988 23.9988C11.4211 23.9988 10.8492 23.8834 10.3168 23.6592C9.78432 23.4351 9.30205 23.1067 8.89829 22.6935L7.96529 21.7395L6.63029 21.7545C6.05242 21.7614 5.47901 21.6526 4.94379 21.4346C4.40856 21.2166 3.92233 20.8938 3.51368 20.4852C3.10503 20.0765 2.78222 19.5903 2.56423 19.0551C2.34623 18.5198 2.23745 17.9464 2.24429 17.3685L2.26079 16.0336L1.30529 15.1005C0.892103 14.6968 0.563784 14.2145 0.339627 13.6821C0.115471 13.1496 0 12.5778 0 12C0 11.4223 0.115471 10.8505 0.339627 10.318C0.563784 9.78557 0.892103 9.3033 1.30529 8.89955L2.25929 7.96655L2.24429 6.63155C2.23745 6.05367 2.34623 5.48026 2.56423 4.94504C2.78222 4.40982 3.10503 3.92359 3.51368 3.51494C3.92233 3.10629 4.40856 2.78348 4.94379 2.56548C5.47901 2.34749 6.05242 2.23871 6.63029 2.24555L7.96529 2.26205L8.89829 1.30505C9.30205 0.891859 9.78432 0.56354 10.3168 0.339383C10.8492 0.115227 11.4211 -0.000244141 11.9988 -0.000244141C12.5765 -0.000244141 13.1484 0.115227 13.6808 0.339383ZM16.7593 10.2815C16.9129 10.1407 16.9992 9.94975 16.9992 9.75066C16.9992 9.55157 16.9129 9.36064 16.7593 9.21986C16.6057 9.07909 16.3974 9 16.1802 9C15.963 9 15.7546 9.07909 15.601 9.21986L11.2722 13.1889L9.39737 11.469C9.32132 11.3993 9.23103 11.344 9.13166 11.3063C9.03229 11.2686 8.92579 11.2491 8.81823 11.2491C8.71068 11.2491 8.60417 11.2686 8.50481 11.3063C8.40544 11.344 8.31515 11.3993 8.23909 11.469C8.16304 11.5387 8.10271 11.6215 8.06155 11.7125C8.02039 11.8036 7.99921 11.9012 7.99921 11.9998C7.99921 12.0984 8.02039 12.196 8.06155 12.2871C8.10271 12.3781 8.16304 12.4609 8.23909 12.5306L10.6931 14.7797C10.7691 14.8496 10.8593 14.905 10.9587 14.9427C11.0581 14.9805 11.1646 15 11.2722 15C11.3798 15 11.4863 14.9805 11.5857 14.9427C11.6851 14.905 11.7754 14.8496 11.8514 14.7797L16.7593 10.2815Z" fill="url(#paint0_linear_196_2032)"/>
<defs>
<linearGradient id="paint0_linear_196_2032" x1="0" y1="-0.000244141" x2="25.8205" y2="2.15452" gradientUnits="userSpaceOnUse">
<stop stop-color="#48B760"/>
<stop offset="1" stop-color="#6BB748"/>
</linearGradient>
</defs>
</svg>
